HIERARCHY
ROOT Hips
{
	OFFSET 0.000000 0.000000 0.000000
	CHANNELS 6 Xposition Yposition Zposition Zrotation Yrotation Xrotation 
	JOINT LHipJoint
	{
		OFFSET 0.000000 0.000000 0.000000
		CHANNELS 3 Zrotation Yrotation Xrotation
		JOINT LeftUpLeg
		{
			OFFSET 1.363060 -1.794630 0.839290
			CHANNELS 3 Zrotation Yrotation Xrotation
			JOINT LeftLeg
			{
				OFFSET 2.448110 -6.726130 0.000000
				CHANNELS 3 Zrotation Yrotation Xrotation
				JOINT LeftFoot
				{
					OFFSET 2.562200 -7.039590 0.000000
					CHANNELS 3 Zrotation Yrotation Xrotation
					JOINT LeftToeBase
					{
						OFFSET 0.157640 -0.433110 2.322550
						CHANNELS 3 Zrotation Yrotation Xrotation
						End Site
						{
							OFFSET 0.000000 0.000000 0.000000
						}
					}
				}
			}
		}
	}
	JOINT RHipJoint
	{
		OFFSET 0.000000 0.000000 0.000000
		CHANNELS 3 Zrotation Yrotation Xrotation
		JOINT RightUpLeg
		{
			OFFSET -1.305520 -1.794630 0.839290
			CHANNELS 3 Zrotation Yrotation Xrotation
			JOINT RightLeg
			{
				OFFSET -2.542530 -6.985550 0.000000
				CHANNELS 3 Zrotation Yrotation Xrotation
				JOINT RightFoot
				{
					OFFSET -2.568260 -7.056230 0.000000
					CHANNELS 3 Zrotation Yrotation Xrotation
					JOINT RightToeBase
					{
						OFFSET -0.164730 -0.452590 2.363150
						CHANNELS 3 Zrotation Yrotation Xrotation
						End Site
						{
							OFFSET 0.000000 0.000000 0.000000
						}
					}
				}
			}
		}
	}
	JOINT LowerBack
	{
		OFFSET 0.000000 0.000000 0.000000
		CHANNELS 3 Zrotation Yrotation Xrotation
		JOINT Spine
		{
			OFFSET 0.028270 2.035590 -0.193380
			CHANNELS 3 Zrotation Yrotation Xrotation
			JOINT Spine1
			{
				OFFSET 0.056720 2.048850 -0.042750
				CHANNELS 3 Zrotation Yrotation Xrotation
				JOINT Neck
				{
					OFFSET 0.000000 0.000000 0.000000
					CHANNELS 3 Zrotation Yrotation Xrotation
					JOINT Neck1
					{
						OFFSET -0.054170 1.746240 0.172020
						CHANNELS 3 Zrotation Yrotation Xrotation
						JOINT Head
						{
							OFFSET 0.104070 1.761360 -0.123970
							CHANNELS 3 Zrotation Yrotation Xrotation
							End Site
							{
								OFFSET 0.000000 0.000000 0.000000
							}
						}
					}
				}
				JOINT LeftShoulder
				{
					OFFSET 0.000000 0.000000 0.000000
					CHANNELS 3 Zrotation Yrotation Xrotation
					JOINT LeftArm
					{
						OFFSET 3.362410 1.200890 -0.311210
						CHANNELS 3 Zrotation Yrotation Xrotation
						JOINT LeftForeArm
						{
							OFFSET 4.983000 -0.000000 -0.000000
							CHANNELS 3 Zrotation Yrotation Xrotation
							JOINT LeftHand
							{
								OFFSET 3.483560 -0.000000 -0.000000
								CHANNELS 3 Zrotation Yrotation Xrotation
								JOINT LeftFingerBase
								{
									OFFSET 0.000000 0.000000 0.000000
									CHANNELS 3 Zrotation Yrotation Xrotation
									JOINT LeftHandIndex1
									{
										OFFSET 0.715260 -0.000000 -0.000000
										CHANNELS 3 Zrotation Yrotation Xrotation
										End Site
										{
											OFFSET 0.000000 0.000000 0.000000
										}
									}
								}
								JOINT LThumb
								{
									OFFSET 0.000000 0.000000 0.000000
									CHANNELS 3 Zrotation Yrotation Xrotation
									End Site
									{
										OFFSET 0.000000 0.000000 0.000000
									}
								}
							}
						}
					}
				}
				JOINT RightShoulder
				{
					OFFSET 0.000000 0.000000 0.000000
					CHANNELS 3 Zrotation Yrotation Xrotation
					JOINT RightArm
					{
						OFFSET -3.136600 1.374050 -0.404650
						CHANNELS 3 Zrotation Yrotation Xrotation
						JOINT RightForeArm
						{
							OFFSET -5.241900 -0.000000 -0.000000
							CHANNELS 3 Zrotation Yrotation Xrotation
							JOINT RightHand
							{
								OFFSET -3.444170 -0.000000 -0.000000
								CHANNELS 3 Zrotation Yrotation Xrotation
								JOINT RightFingerBase
								{
									OFFSET 0.000000 0.000000 0.000000
									CHANNELS 3 Zrotation Yrotation Xrotation
									JOINT RightHandIndex1
									{
										OFFSET -0.622530 -0.000000 -0.000000
										CHANNELS 3 Zrotation Yrotation Xrotation
										End Site
										{
											OFFSET 0.000000 0.000000 0.000000
										}
									}
								}
								JOINT RThumb
								{
									OFFSET 0.000000 0.000000 0.000000
									CHANNELS 3 Zrotation Yrotation Xrotation
									End Site
									{
										OFFSET 0.000000 0.000000 0.000000
									}
								}
							}
						}
					}
				}
			}
		}
	}
}
MOTION
Frames: 5
Frame Time: 0.008333
3.589615 17.329211 1.072642 -176.484725 -76.105486 -172.415274 -11.757457 2.664593 0.299730 -5.225998 22.892359 -15.014033 -2.660166 -0.940523 -3.915339 0.823392 6.723125 4.510465 1.497100 0.000000 -35.181100 9.290916 -1.282051 3.365252 2.700938 0.125250 -11.935166 2.922849 1.933723 -4.262440 0.494123 0.936906 5.202961 -0.496000 0.000000 -44.393900 1.299371 -4.753036 -4.907636 -0.109001 -5.041588 -4.031417 -7.636409 -5.024219 -2.810271 10.994029 -6.689070 -0.420956 -2.310866 -0.263570 2.054906 0.000000 0.000000 0.000000 22.383592 0.999480 -2.914918 -17.002265 -73.134352 -43.790046 4.871596 -12.179653 -0.116167 12.047412 -1.974101 -0.274225 -0.178226 0.577955 -0.000000 0.000000 0.000000 0.000000 0.000000 0.000000 0.000000 1.349367 -4.509241 -4.713017 94.705540 22.114698 43.132751 -178.346052 54.411794 179.890412 -6.248367 13.637652 -0.807441 0.000530 -1.029757 -0.000000 0.000000 0.000000 0.000000 0.000000 0.000000 0.000000 
3.584406 17.334082 1.064280 -177.438854 -76.060883 -171.299894 -11.757463 2.609130 0.183530 -5.415533 22.717354 -15.076774 -2.667843 -0.940821 -3.687075 0.842666 6.922173 4.494260 1.538600 0.000001 -35.026700 9.303398 -1.269635 3.288627 2.465810 0.166691 -11.961882 2.889107 1.920065 -4.412337 0.489528 0.950557 5.255934 -0.487399 0.000000 -44.374400 1.150173 -4.644578 -4.668428 -0.088105 -4.895822 -4.108630 -7.446459 -4.938404 -3.060734 10.946878 -6.882653 -0.740247 -2.282766 -0.258213 1.968847 0.000000 0.000000 0.000000 21.697276 3.565403 -3.815480 -29.936983 -74.787352 -30.104663 5.860938 -16.595853 -0.126699 11.377657 -2.072755 -0.274819 -0.098366 0.654823 -0.000000 0.000000 0.000000 0.000000 0.000000 0.000000 0.000000 0.962230 -5.049444 -4.665365 94.654822 21.399907 42.855051 -178.246497 53.833222 179.889864 -6.120471 13.649025 -0.790123 -0.010750 -1.027324 -0.000000 0.000000 0.000000 0.000000 0.000000 0.000000 0.000000 
3.578638 17.336024 1.054982 -178.349800 -75.990187 -170.345531 -11.756363 2.547307 0.074222 -5.562131 22.669523 -15.085615 -2.681403 -0.954116 -3.359976 0.863668 7.161767 4.383944 1.577500 0.000000 -34.916400 9.310800 -1.311260 3.300649 2.223972 0.307438 -11.934185 2.850503 1.894536 -4.571390 0.491479 1.035775 5.287074 -0.458700 0.000000 -44.358800 1.087125 -4.302711 -4.570661 -0.156640 -4.537863 -4.094190 -7.555969 -4.589744 -2.873080 10.957190 -7.099455 -1.084942 -2.257942 -0.252403 1.867312 0.000000 0.000000 0.000000 20.320048 6.139624 -3.865706 -41.470327 -76.095362 -17.568273 5.949574 -23.299066 -0.136496 10.508059 -2.170510 -0.269340 -0.015228 0.754071 -0.000000 0.000000 0.000000 0.000000 0.000000 0.000000 0.000000 0.780442 -5.660717 -4.635135 94.443059 20.707060 42.305550 -178.042926 53.175542 179.886852 -6.133668 13.651527 -0.790340 -0.023315 -1.025151 -0.000000 0.000000 0.000000 0.000000 0.000000 0.000000 0.000000 
3.571739 17.334699 1.045147 -179.186645 -75.817732 -169.653998 -11.757523 2.518921 0.039868 -5.663360 22.762420 -15.036072 -2.691613 -0.966917 -2.942966 0.889235 7.431714 4.175640 1.607800 0.000001 -34.856400 9.307729 -1.402076 3.432966 1.988657 0.528212 -11.837518 2.815629 1.866559 -4.704733 0.503296 1.193331 5.290765 -0.413000 0.000001 -44.363300 1.224682 -3.851030 -4.729718 -0.287103 -4.113244 -4.000487 -7.991908 -4.114522 -2.337919 10.856099 -7.292841 -1.153288 -2.303116 -0.254312 1.839397 0.000000 0.000000 0.000000 18.601679 7.594462 -3.508694 -47.658478 -75.303128 -9.908184 4.786455 -32.827221 -0.132579 9.142826 -2.553925 -0.268275 0.055426 0.833825 -0.000000 0.000000 0.000000 0.000000 0.000000 0.000000 0.000000 0.745818 -5.884617 -4.518428 94.160615 20.080970 41.562195 -177.808388 52.677146 179.881658 -6.275534 13.634902 -0.806873 -0.032806 -1.032939 -0.000000 0.000000 0.000000 0.000000 0.000000 0.000000 0.000000 
3.563392 17.330090 1.035445 -179.831350 -75.541307 -169.221509 -11.756759 2.499096 0.026966 -5.719020 22.967212 -14.983661 -2.699643 -0.977007 -2.452359 0.917623 7.705226 3.872192 1.622500 -0.000000 -34.849701 9.300018 -1.510564 3.614282 1.784218 0.814980 -11.730062 2.788396 1.838872 -4.804768 0.522102 1.406280 5.259944 -0.354800 0.000000 -44.398100 1.480505 -3.358360 -4.972573 -0.425697 -3.668970 -3.916795 -8.532126 -3.603174 -1.852023 10.698086 -7.465785 -0.972146 -2.405711 -0.263195 1.882403 0.000000 0.000000 0.000000 16.853375 7.932384 -3.227201 -50.088291 -72.543596 -5.888026 3.216152 -44.415329 -0.111842 7.115282 -3.336516 -0.256181 0.117207 0.881867 -0.000000 0.000000 0.000000 0.000000 0.000000 0.000000 0.000000 0.787182 -5.853904 -4.285533 93.765065 19.431644 40.721434 -177.607055 52.287199 179.875617 -6.519390 13.599806 -0.836601 -0.035685 -1.047985 -0.000000 0.000000 0.000000 0.000000 0.000000 0.000000 0.000000 
